<svg xmlns="http://www.w3.org/2000/svg" viewBox="0 0 300 107.05"><defs><style>.cls-1{fill:#fff;}</style></defs><title>logo-medlife</title><g id="Layer_2" data-name="Layer 2"><g id="Capa_1" data-name="Capa 1"><path class="cls-1" d="M101.77,85.76H105a5.32,5.32,0,0,1,0,10.64h-2.46v4.91a.82.82,0,0,1-1.64,0V86.58a.82.82,0,0,1,.82-.82m.82,1.64v7.37H105a3.68,3.68,0,0,0,0-7.37Z"/><path class="cls-1" d="M112,91.49a.82.82,0,0,1,1.64,0v.9a5.59,5.59,0,0,1,4.09-1.72,5.77,5.77,0,0,1,2.2.41,1.05,1.05,0,0,1,.34.22.81.81,0,0,1,.24.58.82.82,0,0,1-1.18.74,4.05,4.05,0,0,0-1.6-.31,4.09,4.09,0,0,0-4.09,4.09v4.91a.82.82,0,0,1-1.64,0Z"/><path class="cls-1" d="M130.71,99.35a.82.82,0,0,1,.82.82.82.82,0,0,1-.24.58,5.73,5.73,0,1,1,2-4.35.82.82,0,0,1-.82.82h-8.93a4.11,4.11,0,0,0,4,3.27,3.86,3.86,0,0,0,2.64-1,.82.82,0,0,1,.51-.17m.87-3.77a4.11,4.11,0,0,0-8,0Z"/><path class="cls-1" d="M140.83,101.91a.79.79,0,0,1-.58.22.77.77,0,0,1-.58-.24.57.57,0,0,1-.13-.19L135,91.81a.8.8,0,0,1-.06-.32.82.82,0,0,1,.82-.82.81.81,0,0,1,.58.24.93.93,0,0,1,.15.22l3.77,8.23L144,91.13a.82.82,0,0,1,1.49.69l-4.54,9.9a.71.71,0,0,1-.13.2"/><path class="cls-1" d="M156.09,99.35a.82.82,0,0,1,.82.82.82.82,0,0,1-.24.58,5.73,5.73,0,1,1,2-4.35.82.82,0,0,1-.82.82h-8.93a4.11,4.11,0,0,0,4,3.27,3.86,3.86,0,0,0,2.64-1,.82.82,0,0,1,.51-.17m.87-3.77a4.11,4.11,0,0,0-8,0Z"/><path class="cls-1" d="M160.3,91.49a.82.82,0,0,1,1.64,0v.66a5.32,5.32,0,0,1,9,3.84v5.32a.82.82,0,0,1-1.64,0V96a3.68,3.68,0,0,0-7.37,0v5.32a.82.82,0,0,1-1.64,0Z"/><path class="cls-1" d="M176.47,87.16,174,89.64a.81.81,0,0,1-.56.21.82.82,0,0,1-.82-.82.82.82,0,0,1,.2-.55L175.29,86a.82.82,0,0,1,.58-.24.82.82,0,0,1,.82.82.82.82,0,0,1-.22.57m-3.07,4.34a.82.82,0,0,1,1.64,0v9.82a.82.82,0,0,1-1.64,0Z"/><path class="cls-1" d="M180,100.91a1.22,1.22,0,1,1-.36-.87,1.18,1.18,0,0,1,.36.87"/><path class="cls-1" d="M43.15,85.76H53a.82.82,0,0,1,0,1.64H44v5.73h6.55a.82.82,0,0,1,0,1.64H44v5.73h9a.82.82,0,0,1,0,1.64H43.15a.82.82,0,0,1-.82-.82V86.58a.82.82,0,0,1,.82-.82"/><path class="cls-1" d="M55.43,86.58a.82.82,0,0,1,1.64,0V100.5h.82a.82.82,0,0,1,0,1.64H56.25a.82.82,0,0,1-.82-.82Z"/><path class="cls-1" d="M69.23,99.35a.82.82,0,0,1,.82.82.82.82,0,0,1-.24.58,5.73,5.73,0,1,1,2-4.35.82.82,0,0,1-.82.82H62.05a4.11,4.11,0,0,0,4,3.27,3.86,3.86,0,0,0,2.64-1,.82.82,0,0,1,.51-.17m.87-3.77a4.11,4.11,0,0,0-8,0Z"/><path class="cls-1" d="M83.27,100.42l0,0a5.73,5.73,0,1,1,1.68-4.05v5.73a4.31,4.31,0,0,1-1.29,3.11,6.14,6.14,0,0,1-8.69,0,6.1,6.1,0,0,1-1.08-1.42.76.76,0,0,1-.12-.43.82.82,0,0,1,.82-.82.81.81,0,0,1,.58.24,1.22,1.22,0,0,1,.17.25,4.68,4.68,0,0,0,.79,1,4.5,4.5,0,0,0,6.36,0,3.07,3.07,0,0,0,.82-2Zm-4.09-8.1a4.09,4.09,0,1,0,2.9,1.2,3.95,3.95,0,0,0-2.9-1.2"/><path class="cls-1" d="M90.43,87.16l-2.49,2.49a.81.81,0,0,1-.56.21.82.82,0,0,1-.82-.82.82.82,0,0,1,.2-.55L89.25,86a.81.81,0,0,1,.58-.24.82.82,0,0,1,.82.82.82.82,0,0,1-.23.57m-3.07,4.34a.82.82,0,0,1,1.64,0v9.82a.82.82,0,0,1-1.64,0Z"/><path class="cls-1" d="M93.91,100.91a1.22,1.22,0,1,1-.36-.87,1.18,1.18,0,0,1,.36.87"/><path class="cls-1" d="M190.41,85.76a8.19,8.19,0,0,1,0,16.37h-3.27a.82.82,0,0,1-.82-.82V86.58a.82.82,0,0,1,.82-.82Zm0,14.73a6.55,6.55,0,0,0,0-13.1H188v13.1Z"/><path class="cls-1" d="M202.9,88.22a1,1,0,1,1-.3-.72,1,1,0,0,1,.3.72m-1.84,3.27a.82.82,0,0,1,1.64,0v9.82a.82.82,0,0,1-1.64,0Z"/><path class="cls-1" d="M207.17,96.41a3.62,3.62,0,0,1-1.3-.73,2.34,2.34,0,0,1-.73-1.73,2.43,2.43,0,0,1,.76-1.77,5.15,5.15,0,0,1,3.85-1.5,5.69,5.69,0,0,1,4.4,2.06.68.68,0,0,1,.15.48.82.82,0,0,1-.82.82.71.71,0,0,1-.54-.22l-.3-.31a4,4,0,0,0-2.9-1.2A3.57,3.57,0,0,0,207,93.38a1.07,1.07,0,0,0-.25.71.7.7,0,0,0,.5.66l5,1.67a3.63,3.63,0,0,1,1.3.73,2.34,2.34,0,0,1,.73,1.73,2.43,2.43,0,0,1-.76,1.77,5.15,5.15,0,0,1-3.85,1.5,5.67,5.67,0,0,1-4.4-2.06.81.81,0,0,1-.15-.48.82.82,0,0,1,.82-.82.71.71,0,0,1,.54.22l.3.31a3.94,3.94,0,0,0,2.9,1.2,3.57,3.57,0,0,0,2.71-1.06,1.07,1.07,0,0,0,.25-.71.7.7,0,0,0-.5-.66Z"/><path class="cls-1" d="M222.54,85.76a.82.82,0,0,1,0,1.64q-3.28,0-3.27,3.27v.61h2.47a.82.82,0,0,1,0,1.64h-2.47v8.39a.82.82,0,0,1-1.64,0V92.93h-.82a.82.82,0,0,1,0-1.64h.82v-.61q0-4.91,4.91-4.91"/><path class="cls-1" d="M224.18,91.49a.82.82,0,0,1,1.64,0v.9a5.59,5.59,0,0,1,4.09-1.72,5.77,5.77,0,0,1,2.2.41,1.06,1.06,0,0,1,.34.22.82.82,0,0,1,.24.58.82.82,0,0,1-1.18.74,4.06,4.06,0,0,0-1.6-.31,4.09,4.09,0,0,0-4.09,4.09v4.91a.82.82,0,0,1-1.64,0Z"/><path class="cls-1" d="M244.64,101.32a.82.82,0,0,1-1.64,0v-.66a5.32,5.32,0,0,1-9-3.84V91.49a.82.82,0,0,1,1.64,0v5.32a3.68,3.68,0,0,0,7.37,0V91.49a.82.82,0,0,1,1.64,0Z"/><path class="cls-1" d="M252,100.5a.82.82,0,0,1,0,1.64q-4.09,0-4.09-4.09V92.31h-.82a.82.82,0,0,1,0-1.64h.82V86.58a.82.82,0,0,1,1.64,0v4.09h1.65a.82.82,0,0,1,0,1.64h-1.65V98A2.17,2.17,0,0,0,252,100.5"/><path class="cls-1" d="M263.69,100.42a5.59,5.59,0,0,1-4.09,1.72,5.73,5.73,0,1,1,5.73-5.73v4.91a.82.82,0,0,1-1.64,0Zm-4.09-8.1a4.09,4.09,0,1,0,2.9,1.2,3.94,3.94,0,0,0-2.9-1.2m2.23-5.16-2.49,2.49a.81.81,0,0,1-.56.21A.82.82,0,0,1,258,89a.82.82,0,0,1,.2-.55L260.65,86a.82.82,0,0,1,.58-.24.82.82,0,0,1,.82.82.82.82,0,0,1-.22.57"/><path class="cls-1" d="M269.42,100.91a1.22,1.22,0,1,1-.36-.87,1.18,1.18,0,0,1,.36.87"/><path class="cls-1" d="M267.23,22.42C267.31,7.5,265.87,7.87,272,7.88s5-1,5,14.54h9.63c4.79,0,4.92-.15,4.92,4.7,0,6,.83,5.13-14.52,5-.56,14,2,14.56-4.78,14.56-7.36,0-4.22-.57-5-14.55-14.76,0-14.51,1.23-14.51-4.81,0-4.84-.19-4.92,4.7-4.92,3.28,0,6.56,0,9.83,0M244.68,5.54c-.58,3-.32,7.57-.32,10.89V27.77c0,4.58-.64,18.88.72,22.1a8,8,0,0,0,3.65,3.78c2.12,1.07,4.61.8,7.14.8h30.94c5.17,0,7.89.71,11.1-2.72.54-.57.32-.6,1-1,.34-2.19.95-.59.94-5.92V9.68c0-4.86-1.39-7.66-5.06-9.06-2.56-1-34.41-.5-41.53-.51-5.74,0-6.61,2.11-8.57,5.44"/><path class="cls-1" d="M39.82,7.84c0,.94-5.71,23.68-6.31,24.66L27,7.41,10,7.29c-.07,4.38-.25,40.68.14,41.95H20.44c.42-1.54.08-27.45.15-31.53,1.16,2.65,7.43,30,8.3,31.53h9.39c.82-2.13,1.46-5.45,2.07-7.76l4-15.61c.34-1.25.66-2.5,1-3.82.16-.65.31-1.25.47-1.91a5.86,5.86,0,0,1,.71-2l0,31.07L57,49.24,57.14,7.3H41.23c-1.29,0-.71-.12-1.4.55"/><polygon class="cls-1" points="9.84 66.79 148.52 66.8 148.52 58.86 9.83 58.86 9.84 59.8 9.84 65.9 9.84 66.79"/><path class="cls-1" d="M109.8,36.27c-.56-3.74.18-7.86,3-9.07,3.71-1.59,6.43,1.73,6.85,4.74,1.57,11.26-8.65,12.33-9.85,4.33m-11.67-5c-.48,5.67.58,10.86,4.07,15.07,2.6,3.13,7.58,4.17,11.44,3.28A10.13,10.13,0,0,0,119,46.54a13.81,13.81,0,0,1,1.51-1.62l0,4.32h10.76c.35-1.5.15-40.08.1-42H119.72V21.68c-1.17-.72-1.64-1.73-4.28-2.74a12.48,12.48,0,0,0-14.26,3.83c-1.91,2.23-2.8,5.66-3,8.5"/><path class="cls-1" d="M73.11,31.36a5.68,5.68,0,0,1,5.6-6.29c3.83,0,5.34,2.66,5.67,6.29ZM62.73,41.65c2.12,4.76,5.72,6.75,10.37,7.81a27.77,27.77,0,0,0,7.35.42,28.67,28.67,0,0,0,5.48-.71c5.27-1.3,6.84-4.28,7.7-4.86a12.82,12.82,0,0,0,1.81-3l-11.29-1c-1,.94-1.19,1.58-2.82,2.23-3.7,1.47-8-.22-8.4-5.66H96.31c-.45-6.82-.78-13-7.67-16.71-4-2.16-10.72-2.67-15.69-1.49a14.69,14.69,0,0,0-10.25,7.84,17.88,17.88,0,0,0,0,15.07"/><path class="cls-1" d="M231.6,31.13H214.68c.37-4.85,3.36-8.54,8.27-8.71,5.4-.2,8.3,3.72,8.65,8.71M185,13.22l5.14,0V7.39l-5.13-.09Zm.11,36.18c1.42-.5,3.41,0,5-.21V19.27c-.1-.58.12-.16-.34-.41H185ZM202.7,6.78c-.26.22.1,0-.43.28L202,7.2c-5,2.36-4.45,5.71-4.47,11.67h-2.42c-2.3,0-1.93-.12-2.11.41l.07,3.59h4.46l.09,26.37,5,0V22.87l5.84,0c.05-.29.41-3.89-.27-4h-5.56c-.1-6.86.11-8.14,7.33-7.29l.73-4.43a22.51,22.51,0,0,0-6-.52ZM180.9,44.34l-20.69,0c-.25-2.51-.2-35.88.07-37l-5.68,0,.07,41.88,26.13,0ZM217.3,19.25c-.51.46-1.86,1.05-2.57,1.59-6.83,5.25-7,16.7-3.53,22.61,2,3.38,5.44,6,10.94,6.42,8.61.6,10.65-3.51,12.36-4.55.52-1.31,2.41-3.44,2.26-5.22l-5.08-.63c-.92,1.32-1.21,3.37-3.47,4.87-4.68,3.12-13.28,1.29-13.81-9H237c.55-8.29-3.23-15.66-11.2-17-3.61-.6-5.44.07-8.52.87"/><polygon class="cls-1" points="136.87 49.24 148.52 49.24 148.49 18.86 136.87 18.86 136.87 49.24"/><polygon class="cls-1" points="136.87 15.23 148.52 15.23 148.51 7.29 136.89 7.3 136.87 15.23"/><path class="cls-1" d="M154.62,69.79V56.68h2.6l3.1,9.28q.43,1.3.63,1.94.22-.71.7-2.1l3.15-9.12h2.32V69.79h-1.67v-11l-3.83,11h-1.56l-3.78-11.17V69.79Zm21.56-3.08,1.66.22a4,4,0,0,1-1.45,2.26,4.37,4.37,0,0,1-2.71.8,4.33,4.33,0,0,1-3.29-1.28,5,5,0,0,1-1.22-3.59,5.24,5.24,0,0,1,1.23-3.71,4.16,4.16,0,0,1,3.19-1.32,4,4,0,0,1,3.1,1.29A5.16,5.16,0,0,1,177.9,65c0,.1,0,.24,0,.43h-7.07a3.65,3.65,0,0,0,.88,2.39,2.63,2.63,0,0,0,2,.83,2.44,2.44,0,0,0,1.51-.47,3.1,3.1,0,0,0,1-1.49m-5.27-2.58h5.29a3.23,3.23,0,0,0-.61-1.8,2.46,2.46,0,0,0-2-.93,2.55,2.55,0,0,0-1.86.74,3,3,0,0,0-.83,2M186,69.79V68.59A3,3,0,0,1,183.36,70a3.69,3.69,0,0,1-2.08-.63,4.13,4.13,0,0,1-1.48-1.74,6.05,6.05,0,0,1-.52-2.58,6.78,6.78,0,0,1,.47-2.58,3.72,3.72,0,0,1,3.54-2.39,3.16,3.16,0,0,1,1.53.36,3.21,3.21,0,0,1,1.09.95V56.68h1.61V69.79Zm-5.09-4.74a4.1,4.1,0,0,0,.77,2.72,2.32,2.32,0,0,0,1.82.9,2.29,2.29,0,0,0,1.8-.86,4,4,0,0,0,.74-2.63,4.44,4.44,0,0,0-.75-2.85,2.31,2.31,0,0,0-1.85-.91,2.24,2.24,0,0,0-1.8.87,4.32,4.32,0,0,0-.72,2.76m9.14-8.37h1.61v1.83h-1.61Zm0,3.61h1.61v9.51h-1.61Zm10.27,6,1.57.22a4.08,4.08,0,0,1-1.32,2.54A3.87,3.87,0,0,1,198,70a4.07,4.07,0,0,1-3.13-1.27,5.15,5.15,0,0,1-1.18-3.64,6.62,6.62,0,0,1,.51-2.69,3.53,3.53,0,0,1,1.55-1.73,4.58,4.58,0,0,1,2.26-.58,3.93,3.93,0,0,1,2.53.78,3.58,3.58,0,0,1,1.26,2.22l-1.56.24a2.59,2.59,0,0,0-.79-1.44A2.05,2.05,0,0,0,198,61.4a2.51,2.51,0,0,0-2,.87,4.14,4.14,0,0,0-.76,2.76,4.27,4.27,0,0,0,.73,2.78,2.39,2.39,0,0,0,1.91.87,2.25,2.25,0,0,0,1.58-.58,2.86,2.86,0,0,0,.81-1.78m2.95-9.63h1.61v1.83h-1.61Zm0,3.61h1.61v9.51h-1.61Zm4.07,9.51V60.29h1.45v1.35a3.41,3.41,0,0,1,3-1.55,4,4,0,0,1,1.58.31,2.48,2.48,0,0,1,1.08.81,3.1,3.1,0,0,1,.5,1.19A9.43,9.43,0,0,1,215,64v5.84h-1.61V64a4.34,4.34,0,0,0-.19-1.47,1.56,1.56,0,0,0-.66-.78,2.12,2.12,0,0,0-1.12-.29,2.59,2.59,0,0,0-1.77.65,3.22,3.22,0,0,0-.74,2.48v5.19Zm16.38-1.19A6,6,0,0,1,222,69.68a4.94,4.94,0,0,1-1.78.31,3.46,3.46,0,0,1-2.41-.76,2.51,2.51,0,0,1-.84-1.95,2.61,2.61,0,0,1,.32-1.27,2.63,2.63,0,0,1,.83-.92,3.94,3.94,0,0,1,1.16-.53,12.12,12.12,0,0,1,1.43-.24,14.69,14.69,0,0,0,2.87-.55c0-.22,0-.36,0-.42a1.77,1.77,0,0,0-.46-1.38,2.7,2.7,0,0,0-1.84-.54,2.84,2.84,0,0,0-1.68.4,2.43,2.43,0,0,0-.8,1.41L217.24,63a3.9,3.9,0,0,1,.71-1.64,3.12,3.12,0,0,1,1.43-1,6.38,6.38,0,0,1,2.16-.34,5.71,5.71,0,0,1,2,.29,2.62,2.62,0,0,1,1.12.72,2.58,2.58,0,0,1,.5,1.1,9.32,9.32,0,0,1,.08,1.48v2.14a23.27,23.27,0,0,0,.1,2.84,3.68,3.68,0,0,0,.39,1.15H224a3.6,3.6,0,0,1-.31-1.19M223.6,65a11.84,11.84,0,0,1-2.64.6,6.06,6.06,0,0,0-1.41.32,1.41,1.41,0,0,0-.63.52,1.4,1.4,0,0,0,.26,1.83,2.11,2.11,0,0,0,1.43.43,3.33,3.33,0,0,0,1.66-.41,2.49,2.49,0,0,0,1.06-1.11,3.85,3.85,0,0,0,.26-1.6ZM233,69.79V56.68h4.95a12.05,12.05,0,0,1,2,.13,4,4,0,0,1,1.62.61,3.23,3.23,0,0,1,1.05,1.26,4.26,4.26,0,0,1-.67,4.61q-1.06,1.16-3.85,1.16h-3.36v5.35Zm1.74-6.89h3.39a3.59,3.59,0,0,0,2.39-.63,2.24,2.24,0,0,0,.7-1.76,2.37,2.37,0,0,0-.41-1.41,2,2,0,0,0-1.1-.78,7.52,7.52,0,0,0-1.62-.12h-3.35ZM245,69.79V60.29h1.45v1.46a3.9,3.9,0,0,1,1-1.33,1.78,1.78,0,0,1,1-.32,3.2,3.2,0,0,1,1.66.51l-.57,1.49a2.37,2.37,0,0,0-1.17-.33,1.52,1.52,0,0,0-.94.32,1.72,1.72,0,0,0-.59.88,6.2,6.2,0,0,0-.27,1.88v5Zm12.59-3.08,1.67.22a4,4,0,0,1-1.45,2.26,4.37,4.37,0,0,1-2.71.8,4.33,4.33,0,0,1-3.29-1.28,5,5,0,0,1-1.22-3.59,5.24,5.24,0,0,1,1.23-3.71A4.16,4.16,0,0,1,255,60.09a4,4,0,0,1,3.1,1.29,5.16,5.16,0,0,1,1.2,3.64c0,.1,0,.24,0,.43H252.2a3.65,3.65,0,0,0,.88,2.39,2.63,2.63,0,0,0,2,.83,2.44,2.44,0,0,0,1.51-.47,3.09,3.09,0,0,0,1-1.49m-5.27-2.58h5.29a3.22,3.22,0,0,0-.61-1.8,2.46,2.46,0,0,0-2-.93,2.55,2.55,0,0,0-1.86.74,3,3,0,0,0-.83,2m9,9.3V60.29h1.46v1.25a3.61,3.61,0,0,1,1.17-1.09,3.22,3.22,0,0,1,1.58-.36,3.73,3.73,0,0,1,2.14.63,3.84,3.84,0,0,1,1.4,1.76,6.48,6.48,0,0,1,.47,2.5,6.36,6.36,0,0,1-.52,2.62,4,4,0,0,1-1.52,1.79,3.9,3.9,0,0,1-2.09.62,3,3,0,0,1-1.44-.34,3.28,3.28,0,0,1-1-.85v4.64Zm1.46-8.34a4.13,4.13,0,0,0,.74,2.7,2.27,2.27,0,0,0,1.79.88,2.31,2.31,0,0,0,1.83-.91,4.29,4.29,0,0,0,.76-2.81,4.19,4.19,0,0,0-.74-2.71,2.24,2.24,0,0,0-1.78-.9,2.31,2.31,0,0,0-1.81,1,4.29,4.29,0,0,0-.79,2.79m14.92,3.5a6,6,0,0,1-1.73,1.08,4.94,4.94,0,0,1-1.78.31,3.46,3.46,0,0,1-2.41-.76,2.51,2.51,0,0,1-.84-1.95,2.61,2.61,0,0,1,.32-1.27,2.64,2.64,0,0,1,.83-.92,4,4,0,0,1,1.16-.53,12.16,12.16,0,0,1,1.43-.24,14.68,14.68,0,0,0,2.87-.55c0-.22,0-.36,0-.42a1.77,1.77,0,0,0-.46-1.38,2.7,2.7,0,0,0-1.84-.54,2.84,2.84,0,0,0-1.68.4,2.43,2.43,0,0,0-.8,1.41L271.17,63a3.9,3.9,0,0,1,.71-1.64,3.13,3.13,0,0,1,1.43-1,6.38,6.38,0,0,1,2.16-.34,5.71,5.71,0,0,1,2,.29,2.61,2.61,0,0,1,1.12.72,2.58,2.58,0,0,1,.5,1.1,9.24,9.24,0,0,1,.08,1.48v2.14a23.3,23.3,0,0,0,.1,2.84,3.68,3.68,0,0,0,.39,1.15H278a3.58,3.58,0,0,1-.31-1.19M277.52,65a11.84,11.84,0,0,1-2.64.6,6.05,6.05,0,0,0-1.41.32,1.41,1.41,0,0,0-.63.52,1.41,1.41,0,0,0,.26,1.83,2.11,2.11,0,0,0,1.43.43,3.33,3.33,0,0,0,1.66-.41,2.49,2.49,0,0,0,1.06-1.11,3.85,3.85,0,0,0,.26-1.6Zm3.81,5.55,1.56.22a1.49,1.49,0,0,0,.55,1.06,2.7,2.7,0,0,0,1.64.45,2.89,2.89,0,0,0,1.73-.45,2.2,2.2,0,0,0,.82-1.25,10.39,10.39,0,0,0,.12-2.06,3.31,3.31,0,0,1-2.63,1.25,3.58,3.58,0,0,1-3-1.41A5.42,5.42,0,0,1,281,65a6.33,6.33,0,0,1,.49-2.51,3.92,3.92,0,0,1,1.42-1.77,3.84,3.84,0,0,1,2.2-.63,3.39,3.39,0,0,1,2.77,1.37V60.29h1.48V68.5a7.76,7.76,0,0,1-.45,3.14,3.3,3.3,0,0,1-1.43,1.46,5,5,0,0,1-2.41.54,4.52,4.52,0,0,1-2.74-.76,2.57,2.57,0,0,1-1-2.3m1.32-5.7a4.11,4.11,0,0,0,.74,2.72,2.46,2.46,0,0,0,3.72,0,4,4,0,0,0,.75-2.67,3.89,3.89,0,0,0-.77-2.63,2.39,2.39,0,0,0-1.86-.88,2.33,2.33,0,0,0-1.83.87,3.86,3.86,0,0,0-.75,2.59M298,68.6a6,6,0,0,1-1.73,1.08,4.93,4.93,0,0,1-1.78.31,3.46,3.46,0,0,1-2.41-.76,2.51,2.51,0,0,1-.84-1.95,2.61,2.61,0,0,1,.32-1.27,2.65,2.65,0,0,1,.83-.92,3.94,3.94,0,0,1,1.16-.53,12.14,12.14,0,0,1,1.43-.24,14.68,14.68,0,0,0,2.87-.55c0-.22,0-.36,0-.42a1.77,1.77,0,0,0-.46-1.38,2.7,2.7,0,0,0-1.84-.54,2.84,2.84,0,0,0-1.68.4,2.43,2.43,0,0,0-.8,1.41L291.53,63a3.9,3.9,0,0,1,.71-1.64,3.13,3.13,0,0,1,1.43-1,6.38,6.38,0,0,1,2.16-.34,5.71,5.71,0,0,1,2,.29,2.61,2.61,0,0,1,1.12.72,2.58,2.58,0,0,1,.5,1.1,9.29,9.29,0,0,1,.08,1.48v2.14a23.3,23.3,0,0,0,.1,2.84,3.66,3.66,0,0,0,.39,1.15h-1.68A3.58,3.58,0,0,1,298,68.6M297.88,65a11.84,11.84,0,0,1-2.64.6,6.05,6.05,0,0,0-1.41.32,1.41,1.41,0,0,0-.63.52,1.41,1.41,0,0,0,.26,1.83,2.11,2.11,0,0,0,1.43.43,3.33,3.33,0,0,0,1.66-.41,2.49,2.49,0,0,0,1.06-1.11,3.84,3.84,0,0,0,.26-1.6Z"/><path class="cls-1" d="M2.44,13.28v-4H4.15a2.91,2.91,0,0,1,.93.11.92.92,0,0,1,.47.38,1.16,1.16,0,0,1,.18.63,1.08,1.08,0,0,1-.26.75,1.27,1.27,0,0,1-.79.37,1.84,1.84,0,0,1,.43.34,4.57,4.57,0,0,1,.46.65l.49.78h-1L4.5,12.4a5.55,5.55,0,0,0-.43-.59.62.62,0,0,0-.24-.17,1.37,1.37,0,0,0-.41,0H3.25v1.68ZM3.25,11h.6a3.1,3.1,0,0,0,.73,0,.44.44,0,0,0,.23-.17.52.52,0,0,0,.08-.3.48.48,0,0,0-.11-.33.49.49,0,0,0-.3-.16H3.25Z"/><path class="cls-1" d="M4,7.27A4,4,0,1,1,1.17,8.44,4,4,0,0,1,4,7.27M6.29,9a3.23,3.23,0,1,0,.95,2.29A3.22,3.22,0,0,0,6.29,9"/></g></g></svg>